<?xml version="1.0" encoding="utf-8"?>
<!-- Svg Vector Icons : http://www.onlinewebfonts.com/icon -->
<!DOCTYPE svg PUBLIC "-//W3C//DTD SVG 1.1//EN" "http://www.w3.org/Graphics/SVG/1.1/DTD/svg11.dtd">
<svg version="1.1" xmlns="http://www.w3.org/2000/svg" xmlns:xlink="http://www.w3.org/1999/xlink" x="0px" y="0px" viewBox="0 0 1000 1000" enable-background="new 0 0 1000 1000" xml:space="preserve">
<metadata> Svg Vector Icons : http://www.onlinewebfonts.com/icon </metadata>
<g><g transform="translate(0.000000,511.000000) scale(0.100000,-0.100000)"><path d="M1222.9,110v-4900H3826h2603.1v1174v1174h1174h1174v3726v3726H5000H1222.9V110z M4479.4,3721.2c163.3-48.5,296-160.8,364.9-308.8c30.6-63.8,53.6-119.9,48.5-125.1c-5.1-2.6-79.1-23-163.3-43.4l-158.2-38.3l-33.2,76.6c-117.4,257.8-518.1,250.1-635.5-12.8c-68.9-153.1-68.9-525.7-2.6-676.3c140.4-303.7,574.2-270.5,655.9,53.6c10.2,48.5,30.6,66.4,58.7,58.7c23-7.7,94.4-28.1,163.3-45.9c66.4-17.9,120-40.8,120-51c0-58.7-94.4-222-181.2-316.5c-168.4-183.8-472.1-245-747.8-150.6c-160.8,56.1-352.2,247.5-408.3,410.9c-91.9,262.9-76.6,607.4,35.7,824.3C3752,3677.8,4129.7,3825.8,4479.4,3721.2z M5561.5,3149.5c107.2-313.9,201.6-561.5,209.3-548.7c7.6,12.8,97,273.1,196.5,579.3l186.3,553.8h173.5h176.1l-112.3-311.4c-61.3-173.5-188.9-535.9-285.8-803.9l-173.5-492.5h-178.7h-178.6L5385.4,2657c-102.1,291-232.2,653.3-285.8,803.9l-99.6,275.6l181.2-7.7l183.8-7.7L5561.5,3149.5z M7245.8,748V543.9H5000H2754.2V748v204.2H5000h2245.8V748z M7245.8-540.8v-216.9H5000H2754.2v216.9v216.9H5000h2245.8V-540.8z M7245.8-1842.3v-216.9H5000H2754.2v216.9v216.9H5000h2245.8V-1842.3z"/><path d="M6658.9-3718.1V-4790h199.1h196.5l834.5,837.1c456.8,459.4,844.7,860.1,860.1,890.7c15.3,30.6,28.1,135.3,28.1,234.8v181.2H7718H6658.9V-3718.1z M8215.6-3062.2c0-2.6-262.9-270.5-587-592.1l-587-587v594.6v592.1h587C7952.8-3054.6,8215.6-3057.1,8215.6-3062.2z"/><path d="M7271.4-3480.8v-224.6l216.9,216.9c120,120,216.9,219.5,216.9,222c0,5.1-97,7.6-216.9,7.6h-216.9V-3480.8z"/></g></g>
</svg>